# xmcd CD database file
#
# Track frame offsets:
#	150
#	13353
#	27818
#	42091
#	53465
#	73387
#	85557
#	95785
#	109543
#	120069
#	132273
#	144735
#	159095
#	170032
#	180944
#	193119
#	204454
#	217138
#	229008
#
# Disc length: 3230 seconds
#
# Revision: 1
# Processed by: cddbd v1.5.2PL0 Copyright (c) Steve Scherf et al.
# Submitted via: CDex 1.83
#
DISCID=000c9c13
DTITLE=Sam and Dave - I Thank You Plus
DYEAR=1968
DGENRE=Soul
TTITLE0=I Thank You (Isaac Hayes-David Porter)
TTITLE1=Everybody Got to Believe in Somebody (Isaac Hayes-David Porter)
TTITLE2=These Arms of Mine (Otis Redding)
TTITLE3=Wrap it up (Isaac Hayes-David Porter)
TTITLE4=If I Didn't Have a Girl Like You (Isaac Hayes-David Porter)
TTITLE5=You Don't Know What You Mean to me (Floyd-Cropper)
TTITLE6=Don't Turn Your Heater on (Cropper-Isbell)
TTITLE7=Talk to The Man (Isaac Hayes-David Porter)
TTITLE8=Love is After me (Isaac Hayes-David Porter-Cropper)
TTITLE9=Ain't That a Lot of Love (Banks-Parker)
TTITLE10=Don't Waste That Love (Isaac Hayes-David Porter)
TTITLE11=That Lucky Old Sun (Smith-Gillespie)
TTITLE12=(bonus track) This is Your World
TTITLE13=(bonus track) Can't You Find Another Way (of Doing It) (Banks-Jackson)
TTITLE14=(bonus track) Still is The Night (Booker-T.Jones)
TTITLE15=(bonus track) Soul Sister, Brown Sugar (Isaac Hayes-David Porter)
TTITLE16=(bonus track) Come on in (Isaac Hayes-David Porter)
TTITLE17=(bonus track) Born Again (Isaac Hayes-David Porter)
TTITLE18=Get it (Isaac Hayes-David Porter)
EXTD=YEAR: 1968
EXTT0=
EXTT1=
EXTT2=
EXTT3=
EXTT4=
EXTT5=
EXTT6=
EXTT7=
EXTT8=
EXTT9=
EXTT10=
EXTT11=
EXTT12=
EXTT13=
EXTT14=
EXTT15=
EXTT16=
EXTT17=
EXTT18=
PLAYORDER=
